<?xml version="1.0" encoding="UTF-8"?><!DOCTYPE svg PUBLIC "-//W3C//DTD SVG 1.1//EN" "http://www.w3.org/Graphics/SVG/1.1/DTD/svg11.dtd"><svg xmlns="http://www.w3.org/2000/svg" xmlns:xlink="http://www.w3.org/1999/xlink"><defs>
<clipPath id="clip0">
<rect width="20" height="20.0688" transform="translate(0 0.320435)"/>
</clipPath>
</defs><symbol id="icon-mail" viewBox="0 0 19 14">
<line x1="0.65" y1="5.84766" x2="0.65" y2="13.8477" stroke-width="1.3"/>
<line x1="17.65" y1="5.84766" x2="17.65" y2="13.8477" stroke-width="1.3"/>
<line y1="13.1977" x2="18" y2="13.1977" stroke-width="1.3"/>
<line y1="1.19766" x2="18" y2="1.19766" stroke-width="1.3"/>
<path d="M17.35 3.02975L9.00002 9.5242L0.65 3.02975V1.49766H3.5L9.00002 1.49766H14H17.35V3.02975Z" stroke-width="1.3"/>
</symbol><symbol id="icon-phone" viewBox="0 0 20 21">
<g clip-path="url(#clip0)">
<path d="M17.9 9.75275H9.39999V10.9569H17.9L15.8 13.0641L16.7 13.9672L19.8 10.8565C19.8974 10.7263 19.95 10.5678 19.95 10.405C19.95 10.2421 19.8974 10.0837 19.8 9.95344L16.7 6.84277L15.8 7.74587L17.9 9.75275Z"/>
<path d="M8.10001 19.7872V13.5659C8.08846 13.41 8.02154 13.2635 7.91142 13.153C7.80131 13.0425 7.65531 12.9754 7.50001 12.9638H3.10001C3.10516 13.2815 3.23325 13.5848 3.45718 13.8095C3.68112 14.0342 3.98336 14.1627 4.30001 14.1679H6.80001V19.1851H3.10001C2.86326 19.2 2.62591 19.1676 2.40176 19.0896C2.17762 19.0117 1.97115 18.8898 1.79436 18.7311C1.61757 18.5723 1.47399 18.3799 1.37196 18.165C1.26992 17.9501 1.21148 17.717 1.20001 17.4793V3.43111C1.19181 2.96681 1.36516 2.51774 1.68292 2.18013C2.00069 1.84252 2.43758 1.64322 2.90001 1.62492H6.80001V6.64212H4.40001C4.08336 6.64729 3.78112 6.77581 3.55718 7.00052C3.33325 7.22523 3.20516 7.52851 3.20001 7.84625H7.60001C7.75531 7.83466 7.90131 7.76751 8.01142 7.65701C8.12154 7.54651 8.18846 7.40002 8.20001 7.24418V0.922517C8.15232 0.76584 8.06117 0.626022 7.93721 0.519407C7.81325 0.412792 7.66161 0.343785 7.50001 0.320453H3.10001C2.70599 0.307054 2.31321 0.371716 1.94411 0.510744C1.57501 0.649771 1.23684 0.860436 0.948933 1.13069C0.661026 1.40095 0.42903 1.7255 0.266207 2.08579C0.103385 2.44608 0.01293 2.83504 1.46306e-05 3.23043V17.1782C-0.0289644 17.5773 0.0246504 17.978 0.157487 18.3552C0.290324 18.7324 0.499509 19.078 0.771886 19.3701C1.04426 19.6623 1.37394 19.8947 1.74019 20.0529C2.10643 20.211 2.50132 20.2913 2.90001 20.2889H7.50001C7.5735 20.304 7.64943 20.3022 7.72216 20.2839C7.7949 20.2655 7.86259 20.2309 7.92021 20.1828C7.97783 20.1346 8.02391 20.074 8.05504 20.0055C8.08616 19.9371 8.10153 19.8624 8.10001 19.7872Z"/>
</g>

</symbol><symbol id="icon_facebook" viewBox="0 0 28 33">
<path d="M21.0001 2.74976H17.5001C15.953 2.74976 14.4693 3.45999 13.3753 4.72423C12.2813 5.98846 11.6667 7.70313 11.6667 9.49103V13.5358H8.16675V18.9288H11.6667V29.7148H16.3334V18.9288H19.8334L21.0001 13.5358H16.3334V9.49103C16.3334 9.13345 16.4563 8.79051 16.6751 8.53767C16.8939 8.28482 17.1907 8.14277 17.5001 8.14277H21.0001V2.74976Z" stroke="#666666" stroke-width="1.1" stroke-linecap="round" stroke-linejoin="round"/>
</symbol><symbol id="icon_gift" viewBox="0 0 78 80">
<path d="M64.0156 34.7129H14.031C12.2766 34.7129 10.8494 33.2954 10.8494 31.5526V22.0845C10.8494 20.3417 12.2766 18.9236 14.031 18.9236H64.0149C65.7687 18.9236 67.1953 20.3417 67.1953 22.0845V31.5533C67.1959 33.2954 65.7693 34.7129 64.0156 34.7129ZM14.031 21.3457C13.6276 21.3457 13.2869 21.6842 13.2869 22.0845V31.5533C13.2869 31.9602 13.6208 32.2914 14.031 32.2914H64.0149C64.4244 32.2914 64.7578 31.9602 64.7578 31.5533V22.0845C64.7578 21.6836 64.4171 21.3457 64.0149 21.3457H14.031Z" fill="white"/>
<path d="M57.0447 67.1491H20.999C17.6218 67.1491 14.8741 64.4193 14.8741 61.0628V33.5018C14.8741 32.8333 15.4201 32.2908 16.0929 32.2908C16.7656 32.2908 17.3116 32.8333 17.3116 33.5018V61.0628C17.3116 63.0835 18.9661 64.7269 20.999 64.7269H57.0447C59.077 64.7269 60.7308 63.0835 60.7308 61.0628V33.5018C60.7308 32.8333 61.2768 32.2908 61.9496 32.2908C62.6223 32.2908 63.1683 32.8333 63.1683 33.5018V61.0628C63.1683 64.4193 60.4213 67.1491 57.0447 67.1491Z" fill="white"/>
<path d="M39.0225 67.1491C38.3498 67.1491 37.8038 66.6071 37.8038 65.938V33.5018C37.8038 32.8333 38.3498 32.2908 39.0225 32.2908C39.6953 32.2908 40.2413 32.8333 40.2413 33.5018V65.9374C40.2413 66.6071 39.6959 67.1491 39.0225 67.1491Z" fill="white"/>
<path d="M23.8113 21.3416C19.9966 19.2876 18.5731 14.533 20.6383 10.7417C22.7022 6.95225 27.4864 5.53711 31.303 7.58746C37.117 10.7169 40.2565 19.4475 40.3869 19.8175L38.0877 20.621C38.0585 20.5387 35.1256 12.3997 30.1433 9.71773C27.5078 8.30199 24.2062 9.27933 22.7821 11.8946C21.3567 14.5124 22.339 17.7944 24.9734 19.2119L23.8113 21.3416Z" fill="white"/>
<path d="M54.2313 21.3416L53.071 19.2113C54.3477 18.524 55.2782 17.385 55.6926 16.0038C56.1063 14.622 55.9534 13.1626 55.2617 11.8952C54.5719 10.6266 53.4263 9.70258 52.0363 9.29142C50.6457 8.88026 49.1783 9.03164 47.9023 9.71771C42.9201 12.399 39.9871 20.538 39.9579 20.6204L37.6587 19.8168C37.7891 19.4469 40.928 10.7162 46.7421 7.58744C48.5897 6.59315 50.7182 6.37394 52.7316 6.96979C54.7468 7.56503 56.4061 8.90508 57.4061 10.7417C58.4073 12.5777 58.6285 14.6916 58.0289 16.6941C57.4287 18.696 56.0801 20.3461 54.2313 21.3416Z" fill="white"/>
<path d="M61.9496 50.9317H16.0929C15.4201 50.9317 14.8741 50.3891 14.8741 49.7206C14.8741 49.0521 15.4201 48.5095 16.0929 48.5095H61.9496C62.6223 48.5095 63.1683 49.0521 63.1683 49.7206C63.1683 50.3891 62.6229 50.9317 61.9496 50.9317Z" fill="white"/>
</symbol><symbol id="icon_instagram" viewBox="0 0 23 23">
<path d="M11.4775 0.0898438C13.3942 0.0898438 14.959 0.112305 16.1719 0.157227C17.2051 0.202148 18.126 0.381836 18.9346 0.696289C19.7132 0.995768 20.387 1.43001 20.9561 1.99902C21.5251 2.56803 21.9593 3.24186 22.2588 4.02051C22.5732 4.8291 22.7529 5.75 22.7979 6.7832C22.8428 7.99609 22.8652 9.56087 22.8652 11.4775C22.8652 13.3942 22.8428 14.959 22.7979 16.1719C22.7529 17.2051 22.5732 18.126 22.2588 18.9346C21.9593 19.7132 21.5251 20.387 20.9561 20.9561C20.387 21.5251 19.7132 21.9593 18.9346 22.2588C18.126 22.5732 17.2051 22.7529 16.1719 22.7978C14.959 22.8428 13.3942 22.8652 11.4775 22.8652C9.56087 22.8652 7.99609 22.8428 6.7832 22.7978C5.75 22.7529 4.8291 22.5732 4.02051 22.2588C3.24186 21.9593 2.56803 21.5251 1.99902 20.9561C1.43001 20.387 0.995768 19.7132 0.696289 18.9346C0.381836 18.126 0.202148 17.2051 0.157227 16.1719C0.112305 14.959 0.0898438 13.3942 0.0898438 11.4775C0.0898438 9.56087 0.112305 7.99609 0.157227 6.7832C0.202148 5.75 0.381836 4.8291 0.696289 4.02051C0.995768 3.24186 1.43001 2.56803 1.99902 1.99902C2.56803 1.43001 3.24186 0.995768 4.02051 0.696289C4.8291 0.381836 5.75 0.202148 6.7832 0.157227C7.99609 0.112305 9.56087 0.0898438 11.4775 0.0898438ZM11.4775 1.57227C9.486 1.57227 7.86133 1.59473 6.60352 1.63965C5.79492 1.6696 5.04622 1.81185 4.35742 2.06641C3.2793 2.51562 2.51562 3.2793 2.06641 4.35742C1.81185 5.04622 1.6696 5.79492 1.63965 6.60352C1.59473 7.86133 1.57227 9.486 1.57227 11.4775C1.57227 13.4691 1.59473 15.0937 1.63965 16.3516C1.6696 17.1602 1.81185 17.9089 2.06641 18.5977C2.51562 19.6758 3.2793 20.4395 4.35742 20.8887C5.04622 21.1432 5.79492 21.2855 6.60352 21.3154C7.86133 21.3603 9.486 21.3828 11.4775 21.3828C13.4691 21.3828 15.0938 21.3603 16.3516 21.3154C17.1602 21.2855 17.9089 21.1432 18.5977 20.8887C19.6758 20.4395 20.4395 19.6758 20.8887 18.5977C21.1432 17.9089 21.2855 17.1602 21.3154 16.3516C21.3604 15.0937 21.3828 13.4691 21.3828 11.4775C21.3828 9.486 21.3604 7.86133 21.3154 6.60352C21.2855 5.79492 21.1432 5.04622 20.8887 4.35742C20.4395 3.2793 19.6758 2.51562 18.5977 2.06641C17.9089 1.81185 17.1602 1.6696 16.3516 1.63965C15.0938 1.59473 13.4691 1.57227 11.4775 1.57227ZM11.4775 16.0371C12.7354 16.0371 13.8097 15.5916 14.7007 14.7007C15.5916 13.8097 16.0371 12.7354 16.0371 11.4775C16.0371 10.2197 15.5916 9.14534 14.7007 8.25439C13.8097 7.36344 12.7354 6.91797 11.4775 6.91797C10.2197 6.91797 9.14534 7.36344 8.25439 8.25439C7.36344 9.14534 6.91797 10.2197 6.91797 11.4775C6.91797 12.7354 7.36344 13.8097 8.25439 14.7007C9.14534 15.5916 10.2197 16.0371 11.4775 16.0371ZM11.4775 5.63769C13.0947 5.63769 14.4723 6.20671 15.6104 7.34473C16.7484 8.48275 17.3174 9.86035 17.3174 11.4775C17.3174 13.0947 16.7484 14.4723 15.6104 15.6104C14.4723 16.7484 13.0947 17.3174 11.4775 17.3174C9.86035 17.3174 8.48275 16.7484 7.34473 15.6104C6.20671 14.4723 5.6377 13.0947 5.6377 11.4775C5.6377 9.86035 6.20671 8.48275 7.34473 7.34473C8.48275 6.20671 9.86035 5.63769 11.4775 5.63769ZM18.9346 5.41309C18.9346 5.78743 18.7998 6.10563 18.5303 6.36768C18.2607 6.62972 17.9313 6.76074 17.542 6.76074C17.1676 6.76074 16.8494 6.62972 16.5874 6.36768C16.3254 6.10563 16.1943 5.78743 16.1943 5.41309C16.1943 5.02376 16.3254 4.69434 16.5874 4.4248C16.8494 4.15527 17.1676 4.02051 17.542 4.02051C17.9163 4.02051 18.242 4.15902 18.519 4.43603C18.7961 4.71305 18.9346 5.03874 18.9346 5.41309Z" fill="#666666"/>
</symbol><symbol id="icon_vkontakte" viewBox="0 0 30 22">
<path d="M0.0914307 5.48988C0.0914307 4.63485 0.643326 4.17381 1.74712 4.10674L6.00052 4.13189C6.28599 4.13189 6.47629 4.25763 6.57145 4.50911C7.00916 5.76651 7.4992 6.85206 8.04158 7.76577C8.58397 8.67948 9.29287 9.7315 10.1683 10.9218C10.2444 11.0727 10.3681 11.1482 10.5394 11.1482C10.6726 11.1482 10.7773 11.0895 10.8534 10.9721L10.939 10.6955L10.9676 6.34491C10.9676 6.04313 10.8867 5.84195 10.7249 5.74136C10.5632 5.64077 10.2634 5.56532 9.82573 5.51503C9.48318 5.46473 9.3119 5.28031 9.3119 4.96177C9.3119 4.89471 9.32141 4.84442 9.34044 4.81089C9.74009 3.72114 10.8819 3.17627 12.766 3.17627L14.3646 3.15112C15.0878 3.15112 15.6872 3.31039 16.163 3.62893C16.6388 3.94747 16.8767 4.45043 16.8767 5.13781V10.8464C17.0099 10.9302 17.1336 10.9721 17.2478 10.9721C17.5332 10.9721 17.7806 10.8212 17.99 10.5195C20.0834 7.93761 21.2157 6.21079 21.387 5.33899C21.387 5.32223 21.406 5.28031 21.4441 5.21325C21.5773 4.96177 21.7962 4.74383 22.1007 4.55941C22.4051 4.37499 22.6716 4.24925 22.9 4.18219C22.9761 4.14866 23.0617 4.13189 23.1569 4.13189H27.5816L27.867 4.15704C28.2476 4.15704 28.5426 4.31631 28.752 4.63485C28.8281 4.73544 28.8804 4.84442 28.909 4.96177C28.9375 5.07913 28.9565 5.19649 28.966 5.31384C28.9756 5.4312 28.9803 5.49826 28.9803 5.51503V5.69106C28.8471 6.37844 28.5093 7.11192 27.9669 7.89151C27.4245 8.67109 26.7347 9.51355 25.8973 10.4189C25.06 11.3242 24.5366 11.9194 24.3273 12.2044C24.156 12.4056 24.0704 12.59 24.0704 12.7576C24.0704 12.8918 24.1465 13.0426 24.2987 13.2103L28.4665 17.8375C28.6949 18.1058 28.809 18.3992 28.809 18.7177C28.809 19.1033 28.6378 19.4218 28.2952 19.6733C27.9527 19.9248 27.5435 20.0673 27.0677 20.1008L26.5824 20.126H22.2434C22.2244 20.126 22.1863 20.1302 22.1292 20.1385C22.0721 20.1469 22.034 20.1511 22.015 20.1511C21.5963 20.1511 21.2062 19.9919 20.8446 19.6733C20.7114 19.5392 19.8169 18.55 18.1613 16.7059C18.0661 16.5885 17.9329 16.4795 17.7616 16.3789C17.6855 16.6472 17.5856 17.0328 17.4619 17.5357C17.3382 18.0387 17.2478 18.3992 17.1907 18.6171L17.105 19.0446C16.9147 19.6314 16.5151 19.9835 15.9061 20.1008L15.5065 20.126H12.7089C11.1293 20.126 9.55454 19.4889 7.98449 18.2147C6.41444 16.9406 5.0014 15.2934 3.74536 13.2732C2.48932 11.2529 1.31892 8.90162 0.234162 6.21917C0.139008 6.00122 0.0914307 5.75813 0.0914307 5.48988ZM17.2478 12.0032C16.8481 12.0032 16.4865 11.9068 16.163 11.714C15.8395 11.5212 15.6777 11.2571 15.6777 10.9218V5.13781C15.6777 4.8025 15.5826 4.5636 15.3923 4.42109C15.202 4.27859 14.8689 4.20734 14.3931 4.20734L12.766 4.25763C11.9477 4.25763 11.3292 4.38337 10.9105 4.63485C11.7479 4.98692 12.1665 5.55694 12.1665 6.34491V10.7709C12.1285 11.1901 11.9382 11.538 11.5956 11.8146C11.253 12.0912 10.8724 12.2295 10.4538 12.2295C9.88282 12.2295 9.44511 11.9864 9.14062 11.5002C7.65621 9.52193 6.55242 7.64422 5.82924 5.8671L5.57233 5.21325L1.77566 5.18811C1.52826 5.18811 1.39029 5.20068 1.36174 5.22583C1.3332 5.25098 1.31892 5.32223 1.31892 5.43958C1.31892 5.59047 1.33795 5.74974 1.37602 5.9174L1.97549 7.32568C3.57408 10.9637 5.31065 13.8306 7.18519 15.9263C9.05974 18.0219 10.901 19.0698 12.7089 19.0698H15.5635C15.6777 19.0698 15.7634 19.0404 15.8205 18.9817C15.8776 18.9231 15.9251 18.8099 15.9632 18.6422L16.0203 18.3908L16.5627 16.1778C16.7149 15.876 16.8481 15.6748 16.9623 15.5742C17.1717 15.3898 17.4191 15.2976 17.7045 15.2976C18.1613 15.2976 18.6275 15.5407 19.1033 16.0269L21.5297 18.7428C21.682 18.9608 21.8437 19.0698 22.015 19.0698H26.7252C27.2961 19.0698 27.5816 18.944 27.5816 18.6925C27.5816 18.6087 27.553 18.5249 27.4959 18.4411L23.3567 13.8893C23.0332 13.5372 22.8714 13.16 22.8714 12.7576C22.8714 12.3553 23.0237 11.9697 23.3281 11.6008C23.5755 11.2655 24.0561 10.7081 24.7697 9.92849C25.4834 9.1489 26.1067 8.41961 26.6395 7.74062C27.1724 7.06163 27.5245 6.4455 27.6957 5.89225L27.7814 5.56532C27.7623 5.53179 27.7528 5.47731 27.7528 5.40186C27.7528 5.32642 27.7433 5.26355 27.7243 5.21325H23.2425C22.957 5.31384 22.7287 5.46473 22.5574 5.66592L22.3861 6.14373C21.9103 7.30053 20.6638 9.08603 18.6465 11.5002C18.2469 11.8355 17.7806 12.0032 17.2478 12.0032Z" fill="#666666"/>
</symbol><symbol id="sprite">
    <symbol id="vkontakte" viewBox="0 0 30 22">
      <path d="M0.0914307 5.48988C0.0914307 4.63485 0.643326 4.17381 1.74712 4.10674L6.00052 4.13189C6.28599 4.13189 6.47629 4.25763 6.57145 4.50911C7.00916 5.76651 7.4992 6.85206 8.04158 7.76577C8.58397 8.67948 9.29287 9.7315 10.1683 10.9218C10.2444 11.0727 10.3681 11.1482 10.5394 11.1482C10.6726 11.1482 10.7773 11.0895 10.8534 10.9721L10.939 10.6955L10.9676 6.34491C10.9676 6.04313 10.8867 5.84195 10.7249 5.74136C10.5632 5.64077 10.2634 5.56532 9.82573 5.51503C9.48318 5.46473 9.3119 5.28031 9.3119 4.96177C9.3119 4.89471 9.32141 4.84442 9.34044 4.81089C9.74009 3.72114 10.8819 3.17627 12.766 3.17627L14.3646 3.15112C15.0878 3.15112 15.6872 3.31039 16.163 3.62893C16.6388 3.94747 16.8767 4.45043 16.8767 5.13781V10.8464C17.0099 10.9302 17.1336 10.9721 17.2478 10.9721C17.5332 10.9721 17.7806 10.8212 17.99 10.5195C20.0834 7.93761 21.2157 6.21079 21.387 5.33899C21.387 5.32223 21.406 5.28031 21.4441 5.21325C21.5773 4.96177 21.7962 4.74383 22.1007 4.55941C22.4051 4.37499 22.6716 4.24925 22.9 4.18219C22.9761 4.14866 23.0617 4.13189 23.1569 4.13189H27.5816L27.867 4.15704C28.2476 4.15704 28.5426 4.31631 28.752 4.63485C28.8281 4.73544 28.8804 4.84442 28.909 4.96177C28.9375 5.07913 28.9565 5.19649 28.966 5.31384C28.9756 5.4312 28.9803 5.49826 28.9803 5.51503V5.69106C28.8471 6.37844 28.5093 7.11192 27.9669 7.89151C27.4245 8.67109 26.7347 9.51355 25.8973 10.4189C25.06 11.3242 24.5366 11.9194 24.3273 12.2044C24.156 12.4056 24.0704 12.59 24.0704 12.7576C24.0704 12.8918 24.1465 13.0426 24.2987 13.2103L28.4665 17.8375C28.6949 18.1058 28.809 18.3992 28.809 18.7177C28.809 19.1033 28.6378 19.4218 28.2952 19.6733C27.9527 19.9248 27.5435 20.0673 27.0677 20.1008L26.5824 20.126H22.2434C22.2244 20.126 22.1863 20.1302 22.1292 20.1385C22.0721 20.1469 22.034 20.1511 22.015 20.1511C21.5963 20.1511 21.2062 19.9919 20.8446 19.6733C20.7114 19.5392 19.8169 18.55 18.1613 16.7059C18.0661 16.5885 17.9329 16.4795 17.7616 16.3789C17.6855 16.6472 17.5856 17.0328 17.4619 17.5357C17.3382 18.0387 17.2478 18.3992 17.1907 18.6171L17.105 19.0446C16.9147 19.6314 16.5151 19.9835 15.9061 20.1008L15.5065 20.126H12.7089C11.1293 20.126 9.55454 19.4889 7.98449 18.2147C6.41444 16.9406 5.0014 15.2934 3.74536 13.2732C2.48932 11.2529 1.31892 8.90162 0.234162 6.21917C0.139008 6.00122 0.0914307 5.75813 0.0914307 5.48988ZM17.2478 12.0032C16.8481 12.0032 16.4865 11.9068 16.163 11.714C15.8395 11.5212 15.6777 11.2571 15.6777 10.9218V5.13781C15.6777 4.8025 15.5826 4.5636 15.3923 4.42109C15.202 4.27859 14.8689 4.20734 14.3931 4.20734L12.766 4.25763C11.9477 4.25763 11.3292 4.38337 10.9105 4.63485C11.7479 4.98692 12.1665 5.55694 12.1665 6.34491V10.7709C12.1285 11.1901 11.9382 11.538 11.5956 11.8146C11.253 12.0912 10.8724 12.2295 10.4538 12.2295C9.88282 12.2295 9.44511 11.9864 9.14062 11.5002C7.65621 9.52193 6.55242 7.64422 5.82924 5.8671L5.57233 5.21325L1.77566 5.18811C1.52826 5.18811 1.39029 5.20068 1.36174 5.22583C1.3332 5.25098 1.31892 5.32223 1.31892 5.43958C1.31892 5.59047 1.33795 5.74974 1.37602 5.9174L1.97549 7.32568C3.57408 10.9637 5.31065 13.8306 7.18519 15.9263C9.05974 18.0219 10.901 19.0698 12.7089 19.0698H15.5635C15.6777 19.0698 15.7634 19.0404 15.8205 18.9817C15.8776 18.9231 15.9251 18.8099 15.9632 18.6422L16.0203 18.3908L16.5627 16.1778C16.7149 15.876 16.8481 15.6748 16.9623 15.5742C17.1717 15.3898 17.4191 15.2976 17.7045 15.2976C18.1613 15.2976 18.6275 15.5407 19.1033 16.0269L21.5297 18.7428C21.682 18.9608 21.8437 19.0698 22.015 19.0698H26.7252C27.2961 19.0698 27.5816 18.944 27.5816 18.6925C27.5816 18.6087 27.553 18.5249 27.4959 18.4411L23.3567 13.8893C23.0332 13.5372 22.8714 13.16 22.8714 12.7576C22.8714 12.3553 23.0237 11.9697 23.3281 11.6008C23.5755 11.2655 24.0561 10.7081 24.7697 9.92849C25.4834 9.1489 26.1067 8.41961 26.6395 7.74062C27.1724 7.06163 27.5245 6.4455 27.6957 5.89225L27.7814 5.56532C27.7623 5.53179 27.7528 5.47731 27.7528 5.40186C27.7528 5.32642 27.7433 5.26355 27.7243 5.21325H23.2425C22.957 5.31384 22.7287 5.46473 22.5574 5.66592L22.3861 6.14373C21.9103 7.30053 20.6638 9.08603 18.6465 11.5002C18.2469 11.8355 17.7806 12.0032 17.2478 12.0032Z"/>
    </symbol>
    <symbol id="facebook" viewBox="0 0 28 33">
      <path d="M21.0001 2.74976H17.5001C15.953 2.74976 14.4693 3.45999 13.3753 4.72423C12.2813 5.98846 11.6667 7.70313 11.6667 9.49103V13.5358H8.16675V18.9288H11.6667V29.7148H16.3334V18.9288H19.8334L21.0001 13.5358H16.3334V9.49103C16.3334 9.13345 16.4563 8.79051 16.6751 8.53767C16.8939 8.28482 17.1907 8.14277 17.5001 8.14277H21.0001V2.74976Z" stroke-width="1.1" stroke-linecap="round" stroke-linejoin="round"/>
    </symbol>
    <symbol id="instagram" viewBox="0 0 23 23">
      <path d="M11.4775 0.0898438C13.3942 0.0898438 14.959 0.112305 16.1719 0.157227C17.2051 0.202148 18.126 0.381836 18.9346 0.696289C19.7132 0.995768 20.387 1.43001 20.9561 1.99902C21.5251 2.56803 21.9593 3.24186 22.2588 4.02051C22.5732 4.8291 22.7529 5.75 22.7979 6.7832C22.8428 7.99609 22.8652 9.56087 22.8652 11.4775C22.8652 13.3942 22.8428 14.959 22.7979 16.1719C22.7529 17.2051 22.5732 18.126 22.2588 18.9346C21.9593 19.7132 21.5251 20.387 20.9561 20.9561C20.387 21.5251 19.7132 21.9593 18.9346 22.2588C18.126 22.5732 17.2051 22.7529 16.1719 22.7978C14.959 22.8428 13.3942 22.8652 11.4775 22.8652C9.56087 22.8652 7.99609 22.8428 6.7832 22.7978C5.75 22.7529 4.8291 22.5732 4.02051 22.2588C3.24186 21.9593 2.56803 21.5251 1.99902 20.9561C1.43001 20.387 0.995768 19.7132 0.696289 18.9346C0.381836 18.126 0.202148 17.2051 0.157227 16.1719C0.112305 14.959 0.0898438 13.3942 0.0898438 11.4775C0.0898438 9.56087 0.112305 7.99609 0.157227 6.7832C0.202148 5.75 0.381836 4.8291 0.696289 4.02051C0.995768 3.24186 1.43001 2.56803 1.99902 1.99902C2.56803 1.43001 3.24186 0.995768 4.02051 0.696289C4.8291 0.381836 5.75 0.202148 6.7832 0.157227C7.99609 0.112305 9.56087 0.0898438 11.4775 0.0898438ZM11.4775 1.57227C9.486 1.57227 7.86133 1.59473 6.60352 1.63965C5.79492 1.6696 5.04622 1.81185 4.35742 2.06641C3.2793 2.51562 2.51562 3.2793 2.06641 4.35742C1.81185 5.04622 1.6696 5.79492 1.63965 6.60352C1.59473 7.86133 1.57227 9.486 1.57227 11.4775C1.57227 13.4691 1.59473 15.0937 1.63965 16.3516C1.6696 17.1602 1.81185 17.9089 2.06641 18.5977C2.51562 19.6758 3.2793 20.4395 4.35742 20.8887C5.04622 21.1432 5.79492 21.2855 6.60352 21.3154C7.86133 21.3603 9.486 21.3828 11.4775 21.3828C13.4691 21.3828 15.0938 21.3603 16.3516 21.3154C17.1602 21.2855 17.9089 21.1432 18.5977 20.8887C19.6758 20.4395 20.4395 19.6758 20.8887 18.5977C21.1432 17.9089 21.2855 17.1602 21.3154 16.3516C21.3604 15.0937 21.3828 13.4691 21.3828 11.4775C21.3828 9.486 21.3604 7.86133 21.3154 6.60352C21.2855 5.79492 21.1432 5.04622 20.8887 4.35742C20.4395 3.2793 19.6758 2.51562 18.5977 2.06641C17.9089 1.81185 17.1602 1.6696 16.3516 1.63965C15.0938 1.59473 13.4691 1.57227 11.4775 1.57227ZM11.4775 16.0371C12.7354 16.0371 13.8097 15.5916 14.7007 14.7007C15.5916 13.8097 16.0371 12.7354 16.0371 11.4775C16.0371 10.2197 15.5916 9.14534 14.7007 8.25439C13.8097 7.36344 12.7354 6.91797 11.4775 6.91797C10.2197 6.91797 9.14534 7.36344 8.25439 8.25439C7.36344 9.14534 6.91797 10.2197 6.91797 11.4775C6.91797 12.7354 7.36344 13.8097 8.25439 14.7007C9.14534 15.5916 10.2197 16.0371 11.4775 16.0371ZM11.4775 5.63769C13.0947 5.63769 14.4723 6.20671 15.6104 7.34473C16.7484 8.48275 17.3174 9.86035 17.3174 11.4775C17.3174 13.0947 16.7484 14.4723 15.6104 15.6104C14.4723 16.7484 13.0947 17.3174 11.4775 17.3174C9.86035 17.3174 8.48275 16.7484 7.34473 15.6104C6.20671 14.4723 5.6377 13.0947 5.6377 11.4775C5.6377 9.86035 6.20671 8.48275 7.34473 7.34473C8.48275 6.20671 9.86035 5.63769 11.4775 5.63769ZM18.9346 5.41309C18.9346 5.78743 18.7998 6.10563 18.5303 6.36768C18.2607 6.62972 17.9313 6.76074 17.542 6.76074C17.1676 6.76074 16.8494 6.62972 16.5874 6.36768C16.3254 6.10563 16.1943 5.78743 16.1943 5.41309C16.1943 5.02376 16.3254 4.69434 16.5874 4.4248C16.8494 4.15527 17.1676 4.02051 17.542 4.02051C17.9163 4.02051 18.242 4.15902 18.519 4.43603C18.7961 4.71305 18.9346 5.03874 18.9346 5.41309Z"/>
    </symbol>
    <symbol id="htmlacademy" viewBox="0 0 27 34">
      <path d="M13.6426 0.0157537L13.5 0L0 1.40733V26.0129L13.5 34L27 26.0129V1.40733L13.6426 0.0157537ZM25.2344 25.0151L13.5 31.9573L1.76561 25.0151V14.9293L13.4507 21.8451L13.4701 23.0984L5.45351 18.3548L5.44295 19.5801L13.4894 24.3885L13.5088 25.675L5.46408 20.9174L5.45351 22.1427L13.5 26.9511L21.6239 22.1182V20.8929V16.909L25.2432 14.7595L25.2344 25.0151ZM25.2344 13.4519L22.0147 15.3319L20.5325 16.2071L13.4666 12.0201L13.456 13.2454L19.4957 16.818L19.4429 16.8495L19.3126 16.9247L18.4536 17.4166L13.4666 14.4689L13.456 15.6942L17.3921 18.0222L16.4591 18.6314L16.438 18.6436L13.4666 16.902L13.456 18.1273L15.4029 19.2615L13.4155 20.4483L1.7973 13.5762L13.4349 6.61831L25.2344 13.4519ZM25.2344 12.2266L13.4401 5.31075L1.76561 12.2196V2.9897L13.5 1.76442L25.2344 2.9897V12.2266Z"/>
    </symbol>
  </symbol><symbol id="tick" viewBox="0 0 26 26">
<path d="M11 17.718L5.3 11.2695L4.25 12.4574L11 20.0938L22.25 7.36648L21.2 6.09375L11 17.718Z" fill="#68B738"/>
</symbol></svg>